<?xml version="1.0" encoding="UTF-8"?>
<svg version="1.1" xmlns="http://www.w3.org/2000/svg" width="1920" height="1920">
<path d="M0 0 C88.38927154 -0.04372097 176.77859099 -0.04951367 522.65346967 0.21667338 C524.76074547 0.21874904 526.86802127 0.22082307 528.97529707 0.22289652 C599.27513975 0.2920698 669.57497993 0.36362085 739.87481906 0.43630803 C783.74631139 0.48166913 827.61780433 0.52639505 871.48929795 0.57048932 C873.74162866 0.5727531 875.99395936 0.57501719 878.24629006 0.57728135 C893.18285914 0.59229584 908.11942823 0.60729786 923.05599732 0.62229155 C952.73128655 0.65208044 982.40657571 0.68194224 1012.08186482 0.71185478 C1013.49246427 0.71327665 1014.90306373 0.71469848 1016.31366318 0.71612025 C1103.82713009 0.80432753 1191.34059531 0.89417641 1294 1 C1294.00815908 2.40750533 1294.01390714 3.81502474 1294.01868057 5.22254562 C1294.02214815 6.00635566 1294.02561574 6.79016569 1294.02918839 7.59772754 C1293.98200155 11.48131446 1293.63049188 15.32702754 1293.27246094 19.19238281 C1293.19392034 20.07556435 1293.11537973 20.95874588 1293.03445911 21.86869049 C1292.77156753 24.8138568 1292.50296995 27.75847378 1292.234375 30.703125 C1292.0431091 32.83250911 1291.85219593 34.96192493 1291.66160583 37.09136963 C1291.13930136 42.91556184 1290.61200128 48.73929247 1290.08385849 54.56295776 C1289.51696161 60.82361256 1288.954684 67.08468239 1288.3918457 73.34570312 C1287.42808879 84.05948381 1286.46145604 94.77300075 1285.49267578 105.48632812 C1284.21247532 119.64358218 1282.93600488 133.80116929 1281.66096151 147.95888877 C1279.10242065 176.36813413 1276.53757765 204.77680851 1273.97083855 233.18531418 C1273.87408793 234.25614439 1273.87408793 234.25614439 1273.77538276 235.34860754 C1273.64474373 236.7945079 1273.51410386 238.24040818 1273.38346314 239.68630838 C1271.8446304 256.71787836 1270.30700681 273.74955746 1268.76953125 290.78125 C1268.63376503 292.28521412 1268.49799868 293.78917822 1268.36223221 295.29314232 C1267.81773012 301.32491984 1267.27323143 307.35669766 1266.7287426 313.38847637 C1265.84038829 323.22952135 1264.95195303 333.07055903 1264.06345916 342.91159141 C1260.41564341 383.31510772 1256.76908255 423.71873709 1253.12380838 464.12248278 C1252.93742207 466.18836376 1252.75103495 468.25424468 1252.56464767 470.32012558 C1250.70969591 490.88007748 1248.85483781 511.44003782 1247 532 C1245.0208858 553.93750473 1243.04174605 575.87500716 1241.0625 597.8125 C1241.00095199 598.4946844 1240.93940397 599.1768688 1240.87599087 599.87972546 C1236.84084953 644.60426278 1232.80422268 689.32866588 1228.76649141 734.05296946 C1228.56257735 736.31164323 1228.35866402 738.57031708 1228.15475082 740.82899094 C1225.5494499 769.68695209 1222.9440301 798.54490251 1220.33837891 827.40283203 C1218.68385701 845.7268824 1217.02938816 864.05093756 1215.375 882.375 C1215.27321182 883.50240435 1215.27321182 883.50240435 1215.16936731 884.65258455 C1211.05446773 930.22919558 1206.9427684 975.80609393 1202.83447266 1021.38330078 C1200.34833984 1048.9641421 1197.86107812 1076.54488086 1195.37067741 1104.12533712 C1194.95125356 1108.77035845 1194.53188959 1113.41538518 1194.11257857 1118.0604167 C1193.76168445 1121.94750682 1193.41075813 1125.83459404 1193.05981445 1129.72167969 C1192.95534286 1130.878818 1192.95534286 1130.878818 1192.84876072 1132.05933285 C1191.94375706 1142.0826689 1191.03761527 1152.10590133 1190.13038349 1162.12903595 C1189.45236565 1169.61983816 1188.77487123 1177.11068767 1188.09765625 1184.6015625 C1188.03154734 1185.3327253 1187.96543844 1186.06388809 1187.89732623 1186.81720734 C1186.09885964 1206.71055821 1184.32219291 1226.60565564 1182.57247162 1246.50336075 C1181.94654557 1253.61373522 1181.31680815 1260.72377344 1180.68719482 1267.83382225 C1180.11180626 1274.33858598 1179.54360804 1280.84392492 1178.98104382 1287.34980965 C1178.64120278 1291.26143231 1178.29481639 1295.1724541 1177.94651985 1299.08333206 C1177.78899223 1300.86821019 1177.63430332 1302.65334152 1177.48269463 1304.43873215 C1177.27819826 1306.84366841 1177.06383599 1309.24752387 1176.84692383 1311.65136719 C1176.79034796 1312.34619894 1176.73377209 1313.04103069 1176.6754818 1313.75691795 C1176.06068803 1320.33644173 1176.06068803 1320.33644173 1174 1323 C1171.6360321 1324.07879639 1171.6360321 1324.07879639 1168.60424805 1324.90917969 C1167.45378494 1325.23281494 1166.30332184 1325.5564502 1165.11799622 1325.88989258 C1163.84542465 1326.23044678 1162.57285309 1326.57100098 1161.26171875 1326.921875 C1159.90773779 1327.29665643 1158.55416545 1327.67291673 1157.20097351 1328.05053711 C1154.26123957 1328.8677001 1151.3189937 1329.6748281 1148.37445068 1330.4744873 C1143.6073066 1331.76939361 1138.84645803 1333.08645155 1134.08642578 1334.40722656 C1129.00992839 1335.81475252 1123.93304299 1337.22079424 1118.85412598 1338.61956787 C1106.67558896 1341.97407638 1094.51085661 1345.37507916 1082.35546875 1348.8125 C1081.49884581 1349.05473549 1080.64222286 1349.29697098 1079.75964165 1349.54654694 C1075.39698203 1350.78051827 1071.03456893 1352.01535847 1066.67227173 1353.25061035 C1058.60384569 1355.53496668 1050.53352721 1357.81262342 1042.46342278 1360.09104156 C1037.925727 1361.37224772 1033.38816483 1362.65392685 1028.85058594 1363.93554688 C1018.13230747 1366.96275672 1007.41383745 1369.98928799 996.6953125 1373.015625 C995.82038021 1373.26265923 994.94544792 1373.50969345 994.04400253 1373.76421356 C989.62880433 1375.01082681 985.21360326 1376.25742986 980.79840088 1377.50402832 C972.83462796 1379.75254368 964.87088062 1382.00114967 956.9071312 1384.24974823 C952.47975516 1385.49983581 948.0523775 1386.74991761 943.625 1388 C941.85416666 1388.49999997 940.08333333 1388.99999997 938.3125 1389.5 C842.68749231 1416.50000217 842.68749231 1416.50000217 840.03119564 1417.25001526 C838.26054344 1417.74996417 836.48989131 1418.24991331 834.71923923 1418.74986267 C830.28938504 1420.00064608 825.85952976 1421.25142562 821.42967224 1422.50219727 C813.49400843 1424.74283841 805.55835179 1426.98350494 797.62273693 1429.22431946 C793.23938219 1430.46206573 788.85602092 1431.69978887 784.47265625 1432.9375 C783.60301805 1433.18305634 782.73337986 1433.42861267 781.83738899 1433.68161011 C769.75953367 1437.09193889 757.68137446 1440.50118957 745.60299683 1443.90966797 C738.84286921 1445.81735901 732.08282471 1447.72534453 725.32279778 1449.63339233 C719.86462288 1451.17395762 714.40634739 1452.71416564 708.94796562 1454.2539978 C706.39183958 1454.97521504 703.83582054 1455.69681047 701.27981567 1456.41845703 C698.03293013 1457.33509958 694.78555736 1458.24998564 691.53781128 1459.16357422 C684.2266427 1461.22261701 676.92474241 1463.30635233 669.64111328 1465.4609375 C668.34060584 1465.84291434 667.04003489 1466.22467507 665.73939514 1466.60620117 C663.38171559 1467.30028335 661.02650618 1468.00284437 658.67454529 1468.71606445 C647.55851438 1471.97822449 640.27632053 1470.84129846 629.3046875 1467.6171875 C627.36531481 1467.06177332 625.42594155 1466.50636115 623.48654842 1465.95101833 C621.39988597 1465.35130886 619.31479196 1464.74640976 617.23007202 1464.13998413 C612.78513144 1462.84723217 608.33597396 1461.56944375 603.88598633 1460.29418945 C599.15059429 1458.93656499 594.41540883 1457.57825357 589.68153381 1456.21534729 C573.6525427 1451.60150758 557.59988791 1447.07289614 541.54379272 1442.55444336 C536.64248918 1441.17506263 531.74171228 1439.79381772 526.84106445 1438.41210938 C526.02387153 1438.18170897 525.2066786 1437.95130856 524.36472225 1437.71392632 C522.70996487 1437.24737703 521.05520865 1436.78082365 519.40045357 1436.3142662 C516.08313284 1435.37901835 512.76573979 1434.44402721 509.44834805 1433.5090313 C498.70211338 1430.48020508 487.95642904 1427.44943021 477.2109375 1424.41796875 C475.56823757 1423.95454822 473.92553737 1423.49112863 472.28283691 1423.02770996 C469.82496107 1422.33432233 467.36708531 1421.64093438 464.90921021 1420.9475441 C443.33378215 1414.86093537 421.75804748 1408.77542631 400.1796875 1402.69921875 C399.41619177 1402.48422478 398.65269604 1402.2692308 397.86606407 1402.04772186 C394.05889819 1400.97566263 390.25172468 1399.90363044 386.44454956 1398.831604 C384.94219967 1398.40856946 383.43984982 1397.98553479 381.9375 1397.5625 C381.19542927 1397.35354851 380.45335854 1397.14459702 379.68880081 1396.92931366 C359.23249966 1391.16914206 338.78010556 1385.39544989 318.33297729 1379.6027832 C297.92362522 1373.8213565 277.50623389 1368.06865477 257.08755493 1362.32028198 C238.45604865 1357.07497547 219.82629691 1351.82351226 201.19921875 1346.5625 C200.23928638 1346.29138838 199.27935402 1346.02027676 198.29033279 1345.74094963 C188.82528623 1343.06772169 179.36036586 1340.39404786 169.89575481 1337.71927834 C166.37886281 1336.72545441 162.86188393 1335.73193813 159.34488869 1334.73847961 C157.72450467 1334.28068062 156.10416033 1333.82274117 154.48386192 1333.36463928 C152.96602231 1332.93550886 151.44807703 1332.50675197 149.93002033 1332.07839012 C148.47378767 1331.66664601 147.01809749 1331.2529777 145.56299877 1330.83724403 C141.70806086 1329.74050806 137.84602747 1328.69838451 133.96011353 1327.71652222 C133.13213162 1327.50191314 132.30414972 1327.28730406 131.45107746 1327.06619167 C129.85967757 1326.65506211 128.26491835 1326.2566597 126.66668224 1325.87296391 C121.34135054 1324.47953371 121.34135054 1324.47953371 119.83271503 1322.36018276 C118.72146437 1319.21054025 118.46464707 1316.25881374 118.17147827 1312.92971802 C118.10641598 1312.2166613 118.04135369 1311.50360459 117.97431982 1310.76894009 C117.75822696 1308.37929474 117.55374086 1305.98879754 117.34912109 1303.59814453 C117.19654905 1301.88606765 117.0432318 1300.17405703 116.88922501 1298.46210861 C116.5581377 1294.76463642 116.23214207 1291.06676278 115.91005325 1287.36849594 C115.39188205 1281.41967322 114.86251348 1275.47187892 114.33139038 1269.52420044 C113.6807872 1262.23091612 113.03271088 1254.93741624 112.38790524 1247.64361703 C111.25996041 1234.88803765 110.11228744 1222.13434737 108.95019531 1209.38183594 C108.86662726 1208.46468331 108.7830592 1207.54753068 108.69695878 1206.60258555 C108.27377131 1201.95938268 107.85020391 1197.31621456 107.42647171 1192.67306137 C106.64139429 1184.06821221 105.85981579 1175.46304486 105.07788873 1166.85790896 C104.62963904 1161.92525933 104.18117131 1156.99262951 103.73272705 1152.05999756 C103.54970447 1150.04676065 103.36668293 1148.03352365 103.18366241 1146.02028656 C103.09197312 1145.01170436 103.00028383 1144.00312216 102.90581608 1142.96397686 C99.40331586 1104.43647448 95.90081565 1065.9089721 92.39831543 1027.38146973 C92.29944918 1026.29394098 92.20058293 1025.20641224 92.09872073 1024.08592808 C91.89961581 1021.89577393 91.7005109 1019.70561977 91.50140601 1017.51546562 C91.00650046 1012.07150385 90.51159466 1006.6275421 90.01668835 1001.1835804 C89.13545258 991.48999813 88.25421847 981.79641572 87.37299389 972.10283244 C86.88904467 966.77932959 86.40509401 961.45582687 85.92114258 956.13232422 C85.82589283 955.08456936 85.73064307 954.03681449 85.63250697 952.95730948 C84.29909898 938.28974712 82.96560988 923.62219214 81.63206685 908.95464206 C80.8002669 899.80570044 79.96848941 890.65675678 79.13671875 881.5078125 C79.00221963 880.02841619 79.00221963 880.02841619 78.86500335 878.51913309 C76.62040089 853.82998419 74.37661339 829.14076154 72.1345008 804.45138639 C71.02534949 792.23781549 69.91591569 780.02427024 68.80638504 767.8107338 C68.56133694 765.11326399 68.31630971 762.41579228 68.07130051 759.71831894 C65.5656861 732.13263344 63.05520984 704.5474252 60.515625 676.96484375 C60.4167247 675.89064934 60.3178244 674.81645493 60.21592712 673.70970917 C59.44670976 665.35583316 58.67714914 657.00198876 57.9074707 648.64815521 C55.21725465 619.44595758 52.58464631 590.23926555 50.01022339 561.02664185 C47.79488576 535.88924212 45.53937674 510.7557663 43.25 485.625 C43.16840889 484.72927654 43.08681778 483.83355309 43.00275421 482.91068649 C42.22958572 474.42331942 41.45593016 465.93599679 40.68182373 457.44871521 C39.28649738 442.14964789 37.89448949 426.85028038 36.50390625 411.55078125 C36.39603664 410.36400347 36.28816704 409.17722569 36.17702866 407.95448494 C35.61830724 401.80733703 35.05962919 395.66018517 34.50097656 389.51303101 C33.38557687 377.2397529 32.26996507 364.96649407 31.15427542 352.69324231 C30.97206054 350.68875927 30.78984976 348.68427585 30.60763931 346.6797924 C29.23246484 331.55176295 27.85676975 316.42378102 26.47998047 301.29589844 C26.41671932 300.60079324 26.35345817 299.90568804 26.28828001 299.18951905 C25.96657949 295.65473272 25.64487326 292.11994691 25.32316589 288.58516121 C25.19330838 287.15833665 25.063451 285.73151208 24.93359375 284.3046875 C24.86896124 283.59453074 24.80432873 282.88437398 24.73773766 282.15269732 C23.20617923 265.32432867 21.67537883 248.4958916 20.14697266 231.66723633 C20.04657236 230.56178182 20.04657236 230.56178182 19.94414377 229.43399489 C19.32508997 222.61778039 18.70610609 215.80155954 18.08729553 208.98532295 C16.29397324 189.23178547 14.49753155 169.4785355 12.69742656 149.72561491 C11.20432162 133.34080434 9.71435948 116.95570997 8.22698402 100.5703783 C7.2923783 90.275672 6.35537934 79.98118933 5.41526359 69.68698472 C4.77299101 62.65162781 4.13370892 55.61600313 3.49674851 48.5801633 C3.1273329 44.50062603 2.75658419 40.42122121 2.38230705 36.34212685 C2.03757746 32.58472161 1.69662578 28.82699285 1.35860109 25.06897867 C1.17758333 23.06734171 0.99257838 21.06606656 0.80741501 19.06480885 C0.70002125 17.86269103 0.59262749 16.66057322 0.48197937 15.42202759 C0.38824885 14.3919137 0.29451834 13.36179981 0.1979475 12.30047035 C-0.04823709 8.19572063 -0.03996178 4.11059974 0 0 Z " fill="#D3B62A" transform="translate(313,224)"/>
<path d="M0 0 C174.57 0 349.14 0 529 0 C529 7.7440767 528.9813544 15.13556037 528.265625 22.78515625 C528.14892204 24.10795341 528.14892204 24.10795341 528.02986145 25.45747375 C527.77537242 28.32633451 527.51277214 31.19438713 527.25 34.0625 C527.06649584 36.112099 526.88348129 38.16174189 526.70092773 40.21142578 C526.23125487 45.4677744 525.75463218 50.72346443 525.27532959 55.97894287 C525.01533535 58.83173271 524.75661312 61.6846339 524.49853516 64.53759766 C523.85887484 71.60873183 523.21787207 78.67973923 522.57128906 85.75024414 C521.3024239 99.62767492 520.05799766 113.50720077 518.82174683 127.38757324 C517.22624731 145.30111476 515.62709582 163.21429746 514 181.125 C513.92121613 181.99312317 513.84243225 182.86124634 513.76126099 183.75567627 C512.77312704 194.63559875 511.76673745 205.51370407 510.74609375 216.390625 C507.94681028 246.1801287 507.94681028 246.1801287 505.5 276 C504.27879016 292.09984754 502.81068938 308.17237074 501.30276489 324.24771118 C499.503788 343.4291731 497.7906487 362.61684573 496.12268066 381.81011963 C495.07881733 393.81373404 494.03065984 405.81648445 492.90234375 417.8125 C492.77070076 419.21318474 492.77070076 419.21318474 492.63639832 420.64216614 C492.23960125 424.85266639 491.83901817 429.06275111 491.43139648 433.2722168 C490.35847745 444.47654411 489.46343792 455.6927991 488.58984375 466.9140625 C487.15262644 485.36315342 485.55860905 503.79579381 483.90769958 522.22685623 C483.52803986 526.46940432 483.15039651 530.71213203 482.77246094 534.95483398 C482.15272365 541.90912392 481.53160414 548.86328921 480.90966797 555.81738281 C480.17828345 563.99633303 479.45085453 572.17562922 478.72517395 580.35508728 C478.25761677 585.6248942 477.78877384 590.89458641 477.31947994 596.16423893 C477.00922155 599.64828241 476.69935839 603.13235954 476.39071655 606.61654663 C475.14271691 620.68898405 473.84010363 634.75308733 472.4140625 648.80859375 C471.41438217 658.66771774 470.49692837 668.52194415 469.77841187 678.40533447 C468.61208261 694.33024143 467.17982958 710.22779633 465.6875 726.125 C463.73287704 746.96205763 461.84473828 767.80399072 460.00839615 788.65175629 C459.81567167 790.83900446 459.62264421 793.02622571 459.42953491 795.21343994 C459.06277161 799.36877433 458.69708417 803.52420253 458.33203125 807.6796875 C458.2166954 808.99208405 458.10135956 810.30448059 457.98252869 811.65664673 C457.44420729 817.81185714 456.91668898 823.96762168 456.41552734 830.12597656 C456.32550949 831.22982697 456.23549164 832.33367737 456.14274597 833.47097778 C455.97798784 835.50567545 455.81546403 837.54055593 455.65571594 839.57565308 C455.28990929 844.10630372 454.74887352 848.51526463 454 853 C453.67822726 856.24188938 453.44204182 859.4893675 453.203125 862.73828125 C453.05062976 864.74211317 452.89803706 866.74593768 452.74536133 868.74975586 C452.6251915 870.3449556 452.6251915 870.3449556 452.50259399 871.97238159 C451.05326007 891.13731444 449.50087235 910.2921782 447.8125 929.4375 C447.71507507 930.54253876 447.61765015 931.64757751 447.51727295 932.78610229 C445.96078765 950.39962643 444.37061957 968.01016007 442.78515625 985.62109375 C442.68691118 986.71245825 442.58866611 987.80382275 442.48744392 988.9282589 C441.4924835 999.9798658 440.49681981 1011.03140777 439.49745941 1022.08261776 C437.61474432 1042.90459983 435.73657677 1063.72649175 433.98117065 1084.55966187 C430.35870549 1127.40860812 430.35870549 1127.40860812 428 1133 C425.02026367 1134.49389648 425.02026367 1134.49389648 421.16796875 1135.37109375 C420.47245911 1135.53926102 419.77694946 1135.70742828 419.06036377 1135.88069153 C416.77497905 1136.42744297 414.48227192 1136.93175108 412.1875 1137.4375 C410.59755843 1137.8119215 409.00844806 1138.18988926 407.42016602 1138.57128906 C404.99084744 1139.1540528 402.56121293 1139.73442514 400.12864685 1140.30349731 C392.5058582 1142.08760004 384.974002 1144.13171171 377.4375 1146.25 C376.34268311 1146.55478271 375.24786621 1146.85956543 374.11987305 1147.17358398 C371.98512264 1147.76795163 369.85071207 1148.36354144 367.7166748 1148.96046448 C352.77572818 1153.1393732 337.81437396 1157.23929865 322.84241486 1161.30570221 C318.95923721 1162.36041624 315.07624194 1163.41579929 311.19329834 1164.47137451 C301.51349326 1167.10269396 291.83343295 1169.73307401 282.15325928 1172.36303711 C247.60835631 1181.74839029 213.0715789 1191.16198262 178.55092239 1200.63620472 C177.26278943 1200.98972902 175.97465645 1201.34325322 174.68652344 1201.69677734 C174.04794576 1201.87203929 173.40936809 1202.04730124 172.75143957 1202.22787416 C157.07644033 1206.52977832 141.39779771 1210.8183474 125.71875 1215.10546875 C125.03147418 1215.29339666 124.34419836 1215.48132457 123.636096 1215.67494726 C115.34723935 1217.94144241 107.05829296 1220.20760919 98.76929641 1222.47359264 C92.40011549 1224.21476683 86.03101385 1225.95623092 79.66191864 1227.69771862 C73.42288918 1229.40364055 67.18382622 1231.10943998 60.94475746 1232.81521821 C59.00853305 1233.34459186 57.07231305 1233.87398167 55.13609314 1234.40337181 C53.90907181 1234.73884844 52.68205048 1235.07432507 51.41784668 1235.41996765 C50.22169991 1235.74709401 49.02555313 1236.07422037 47.79315948 1236.41125965 C45.47119759 1237.04576224 43.14899425 1237.67938207 40.82653046 1238.3120451 C35.44257502 1239.77944177 30.06292955 1241.25941854 24.69165039 1242.77261353 C23.69712105 1243.05044583 22.70259171 1243.32827814 21.67792511 1243.61452961 C19.84641001 1244.12670235 18.01634683 1244.64411434 16.18822479 1245.16826916 C15.36979347 1245.39607728 14.55136215 1245.6238854 13.70812988 1245.8585968 C13.01159554 1246.05607167 12.31506119 1246.25354654 11.59741974 1246.4570055 C7.78007023 1247.25502815 3.87601881 1247.56933124 0 1248 C0 836.16 0 424.32 0 0 Z " fill="#FAD725" transform="translate(961,342)"/>
<path d="M0 0 C0.00454248 2.56803078 0.00786295 5.13605344 0.01048279 7.7040863 C0.01188814 8.42754037 0.01329349 9.15099444 0.01474142 9.89637136 C0.01848913 14.79573441 -0.10053703 19.64626431 -0.40234375 24.53515625 C-0.44436417 25.22838486 -0.48638458 25.92161346 -0.52967834 26.635849 C-0.61731287 28.06458754 -0.70723893 29.49318753 -0.79956055 30.92163086 C-0.93943973 33.09260532 -1.07080517 35.26398232 -1.20117188 37.43554688 C-1.58823833 43.6721191 -2.11052984 49.81225117 -3 56 C-3.23798377 58.59432949 -3.45657485 61.18368848 -3.6484375 63.78125 C-3.70549866 64.53199295 -3.76255981 65.2827359 -3.8213501 66.05622864 C-4.00870444 68.53728445 -4.19207475 71.01861396 -4.375 73.5 C-4.43903015 74.35749847 -4.5030603 75.21499695 -4.56903076 76.09848022 C-5.84222088 93.17315642 -6.94432034 110.25814031 -7.99755859 127.34765625 C-8.05731873 128.30959396 -8.11707886 129.27153168 -8.1786499 130.26261902 C-8.28917788 132.04484855 -8.39839718 133.82716003 -8.50592041 135.60957336 C-8.77937153 140.01633699 -9.11597799 144.41127782 -9.52133179 148.80802917 C-9.61106451 149.78449496 -9.70079723 150.76096075 -9.79324913 151.76701641 C-9.86147692 152.503901 -9.9297047 153.24078558 -10 154 C-36.55330283 154.13228245 -63.10661417 154.26272782 -89.65993595 154.39115143 C-101.99700905 154.45085903 -114.33407902 154.51110516 -126.67114258 154.57275391 C-137.4599023 154.6266642 -148.24866702 154.67942712 -159.03743833 154.73096704 C-165.66441738 154.76266732 -172.29139048 154.79525271 -178.91835701 154.82947445 C-214.2798684 155.00582974 -249.63711719 155 -285 155 C-285 229.58 -285 304.16 -285 381 C-278.4 380.01 -271.8 379.02 -265 378 C-260.6912802 377.49680424 -256.39800481 377.01877237 -252.08203125 376.60546875 C-249.75682668 376.37289528 -247.43163175 376.14022539 -245.10644531 375.9074707 C-243.91716431 375.79021637 -242.7278833 375.67296204 -241.50256348 375.55215454 C-221.21984106 373.54780235 -200.97285145 371.35082535 -180.75 368.8125 C-166.72112905 367.05342655 -152.7056135 365.38236073 -138.62988281 364.04223633 C-128.49666259 363.07359869 -118.38999921 361.91956011 -108.27954102 360.74121094 C-96.54101156 359.37532962 -84.79598195 358.13839429 -73.02929688 357.0390625 C-66.29789051 356.39468856 -59.64262089 355.54484227 -52.96899414 354.45019531 C-44.66487043 353.19102221 -36.38620353 352.86465404 -28 353 C-27.61686662 362.72023563 -28.66041986 372.31215674 -29.59472656 381.97192383 C-30.07295677 386.92543898 -30.53361824 391.88056842 -30.9921875 396.8359375 C-31.082724 397.81355042 -31.1732605 398.79116333 -31.26654053 399.79840088 C-31.95892563 407.36015632 -32.52388135 414.92131137 -33 422.5 C-33.72163015 433.7712522 -34.70098315 445.00572989 -35.75 456.25 C-37.60450261 476.16737617 -39.28678696 496.09747774 -40.92695618 516.03343201 C-41.12168841 518.39730039 -41.31725035 520.7610987 -41.51306152 523.12487793 C-41.82897157 526.94040427 -42.1426089 530.75611172 -42.45466995 534.57195473 C-42.62227532 536.61749279 -42.7914766 538.66289991 -42.96078491 540.70829773 C-43.59915228 548.51759804 -44.16341532 556.33001131 -44.69054985 564.14764023 C-45.734225 579.61820324 -46.97109489 595.06440469 -48.3125 610.51171875 C-48.52929959 613.03113213 -48.74584633 615.55056728 -48.9621582 618.07002258 C-49.52483085 624.61770248 -50.09018112 631.16514792 -50.65637207 637.71252441 C-51.56245671 648.19381543 -52.46503884 658.6754075 -53.36630249 669.15711403 C-53.67641934 672.75805503 -53.98812752 676.35885543 -54.30004883 679.9596405 C-55.54712092 694.40518989 -56.69892268 708.85598332 -57.79491425 723.31373787 C-58.2007905 728.63000183 -58.63295442 733.94405164 -59.0703125 739.2578125 C-59.15626678 740.30863007 -59.24222107 741.35944763 -59.33078003 742.44210815 C-59.59492797 745.66978761 -59.8599381 748.89739549 -60.125 752.125 C-60.30865225 754.36718271 -60.49224617 756.6093702 -60.67578125 758.8515625 C-61.11652037 764.23442984 -61.5579592 769.61723941 -62 775 C-62.9907251 775.26264648 -63.9814502 775.52529297 -65.00219727 775.79589844 C-71.66199242 777.5645911 -78.3123353 779.35507562 -84.9375 781.25 C-94.99835832 784.08923948 -105.15283851 786.56725463 -115.30444336 789.05761719 C-121.56328659 790.59899597 -127.79254391 792.19905949 -133.984375 793.99609375 C-142.27833997 796.40275134 -150.65502715 798.44563345 -159.04101562 800.5 C-166.06087358 802.22299486 -173.05659741 803.98468133 -180 806 C-188.28862477 808.40576864 -196.66024991 810.4469129 -205.04101562 812.5 C-212.01919749 814.21276564 -218.97399549 815.96125733 -225.875 817.96875 C-234.95983358 820.6056178 -244.14702041 822.81688755 -253.33203125 825.07275391 C-262.1349319 827.23834144 -270.88421205 829.49476496 -279.59082031 832.02636719 C-285.65517136 833.75829443 -291.76576953 835.3103036 -297.875 836.875 C-299.2297594 837.22354315 -300.58449535 837.57217745 -301.93920898 837.92089844 C-311.21680552 840.30520295 -320.50469274 842.64755021 -329.81005859 844.92138672 C-334.76086154 846.1425182 -339.66568027 847.46752742 -344.5625 848.890625 C-352.96640544 851.31545597 -361.44579249 853.40762044 -369.9375 855.5 C-378.74182627 857.67443409 -387.54555132 859.84977568 -396.31640625 862.15625 C-397.4876001 862.46369141 -398.65879395 862.77113281 -399.86547852 863.08789062 C-402.96827263 863.93159004 -402.96827263 863.93159004 -405.73022461 865.11523438 C-408 866 -408 866 -411 866 C-411.26319602 849.6122947 -411.52406901 833.22455423 -411.78230286 816.83677006 C-411.90230302 809.22474008 -412.02301549 801.61272274 -412.14550781 794.00073242 C-412.25248136 787.35299936 -412.35801366 780.7052451 -412.46193409 774.05746359 C-412.51681951 770.54946716 -412.57234549 767.04148396 -412.62960815 763.53352547 C-412.90950475 746.35417738 -413.06596449 729.18171114 -413 712 C-412.38091987 711.84634161 -411.76183973 711.69268322 -411.1239996 711.53436852 C-409.90330194 711.23135039 -409.90330194 711.23135039 -408.65794373 710.92221069 C-407.85194953 710.72214605 -407.04595533 710.52208141 -406.21553707 710.31595421 C-396.78378237 707.97273454 -387.38103424 705.53910648 -378 703 C-373.83363591 701.87387721 -369.66690755 700.74911009 -365.5 699.625 C-364.38423584 699.32368164 -363.26847168 699.02236328 -362.11889648 698.71191406 C-354.73598989 696.72275915 -347.34112874 694.78537283 -339.9375 692.875 C-332.59849533 690.98066076 -325.32308473 688.94583961 -318.06811523 686.75341797 C-312.54291371 685.10602904 -306.97052966 683.78676896 -301.34936523 682.51245117 C-296.56676023 681.41204325 -291.88037775 680.12015935 -287.1875 678.6875 C-279.52350762 676.35306554 -271.77890187 674.41270135 -264 672.5 C-255.88982398 670.50451676 -247.85254308 668.43801227 -239.86889648 665.984375 C-232.33812911 663.71975719 -224.69468683 661.88566182 -217.0625 660 C-206.37213917 657.35854818 -195.73278219 654.601352 -185.13769531 651.59863281 C-180.95513442 650.42736291 -176.75977393 649.30469173 -172.5625 648.1875 C-171.74998779 647.96811768 -170.93747559 647.74873535 -170.1003418 647.52270508 C-166.99065063 646.69932667 -164.23165712 646 -161 646 C-160.98018066 645.02023193 -160.96036133 644.04046387 -160.93994141 643.03100586 C-160.35934882 614.5601084 -159.66265747 586.09251343 -158.9375 557.625 C-158.91444038 556.71970928 -158.89138077 555.81441856 -158.86762238 554.88169479 C-158.57981322 543.58776059 -158.29057034 532.2938635 -158 521 C-172.87244747 523.32699168 -187.70588195 525.78079347 -202.5 528.5625 C-205.63518194 529.14839687 -208.77066038 529.73269536 -211.90625 530.31640625 C-212.6672702 530.45807724 -213.42829041 530.59974823 -214.21237183 530.74571228 C-227.07201033 533.13357236 -239.94390455 535.34270798 -252.875 537.3125 C-264.91402218 539.16599607 -276.93093565 541.13445288 -288.9375 543.1875 C-289.68102722 543.31387848 -290.42455444 543.44025696 -291.19061279 543.57046509 C-300.50034943 545.1300169 -300.50034943 545.1300169 -309.73828125 547.05859375 C-316.20101094 548.55858344 -322.79046681 549.37393411 -329.3515625 550.32421875 C-336.25362379 551.35200754 -343.10008607 552.57023345 -349.94921875 553.8984375 C-360.1830287 555.88018447 -370.44609014 557.62936055 -380.73608398 559.29248047 C-383.62103556 559.75947531 -386.50486024 560.23305298 -389.38867188 560.70703125 C-391.23952046 561.00819914 -393.09042959 561.30899525 -394.94140625 561.609375 C-395.79545547 561.74994324 -396.6495047 561.89051147 -397.5294342 562.03533936 C-398.32224289 562.16257385 -399.11505157 562.28980835 -399.93188477 562.42089844 C-400.96938622 562.58933258 -400.96938622 562.58933258 -402.02784729 562.76116943 C-404 563 -404 563 -408 563 C-408.00808685 561.72379791 -408.01617371 560.44759583 -408.02450562 559.13272095 C-408.4554144 491.62576627 -409.04238156 424.1225463 -409.873703 356.61930847 C-410.70382821 289.21100641 -411.40772437 221.80209653 -412.02405912 154.39148885 C-412.10177977 145.89313673 -412.18043651 137.39479366 -412.25949097 128.89645386 C-412.36659289 117.37207947 -412.47134112 105.84768533 -412.57445717 94.32327461 C-412.61240666 90.0864652 -412.65108842 85.84966359 -412.69048119 81.61286736 C-412.93646448 55.07449523 -413.05251981 28.53952215 -413 2 C-374.39460443 1.74141787 -335.78918698 1.48635916 -297.18373955 1.23563546 C-292.56202738 1.20561684 -287.94031539 1.17557083 -283.31860352 1.14550781 C-281.93921828 1.13653597 -281.93921828 1.13653597 -280.53196668 1.12738287 C-267.69649044 1.04384146 -254.86102467 0.95883388 -242.02556615 0.87261605 C-219.88295307 0.72388221 -197.74032268 0.57808297 -175.59765625 0.4375 C-174.73504639 0.43201676 -173.87243653 0.42653353 -172.98368698 0.42088413 C-115.3219086 0.05487713 -57.66311936 -0.15048389 0 0 Z " fill="#FEFEFE" transform="translate(1425,509)"/>
<path d="M0 0 C42.57 0 85.14 0 129 0 C129 285.78 129 571.56 129 866 C121.14153158 864.87736165 121.14153158 864.87736165 117.8125 863.87109375 C117.04744141 863.64486328 116.28238281 863.41863281 115.49414062 863.18554688 C114.25954102 862.81526367 114.25954102 862.81526367 113 862.4375 C103.88167657 859.76340805 94.70724988 857.34525607 85.5 855 C74.791196 852.26852922 64.13971206 849.39033447 53.52734375 846.3046875 C48.20126872 844.75793694 42.84442996 843.34331529 37.48046875 841.93359375 C33.93056101 840.98137383 30.40345339 839.96614703 26.875 838.9375 C22.58220819 837.69799824 18.30084054 836.58527186 13.9375 835.625 C8.34802785 834.37392681 2.8717239 832.84996599 -2.625 831.25 C-10.88030027 828.84821108 -19.17088498 826.63130463 -27.5 824.5 C-35.36868957 822.48488788 -43.20491218 820.40843348 -51 818.125 C-62.20090482 814.84544561 -73.5153938 812.00704494 -84.83203125 809.15869141 C-91.37711193 807.50364154 -97.86691246 805.82526293 -104.24462891 803.5925293 C-106.64876522 802.7810079 -109.07792178 802.2563187 -111.5625 801.75 C-117.90233126 800.34196771 -124.08952519 798.54065431 -130.3125 796.6875 C-139.55145015 793.94272031 -148.82673742 791.49146762 -158.18847656 789.2043457 C-166.59857276 787.1363232 -174.9109112 784.79094748 -183.2265625 782.375 C-188.63515774 780.80566667 -194.07281838 779.36506354 -199.51953125 777.93359375 C-203.06943899 776.98137383 -206.59654661 775.96614703 -210.125 774.9375 C-214.41779181 773.69799824 -218.69915946 772.58527186 -223.0625 771.625 C-232.46122893 769.42349593 -241.71829395 766.65191601 -251 764 C-251 712.85 -251 661.7 -251 609 C-240.90236344 611.52440914 -230.85011017 614.08673095 -220.82421875 616.86328125 C-219.52177457 617.22216167 -218.21926734 617.58081335 -216.91670227 617.93925476 C-212.16445452 619.24748427 -207.4132741 620.55957093 -202.66217041 621.87194824 C-197.98765109 623.16302349 -193.31257698 624.45206316 -188.63671875 625.73828125 C-187.98099318 625.91873741 -187.3252676 626.09919357 -186.64967155 626.2851181 C-176.15296228 629.17051498 -165.63102413 631.95051575 -155.08085632 634.63459778 C-147.86064077 636.47972933 -140.70547354 638.50115237 -133.5625 640.625 C-125.60713343 642.98353375 -117.6407904 645.13511851 -109.57641602 647.08642578 C-101.95229703 648.95581936 -94.44571396 651.17982606 -86.921875 653.4140625 C-80.64657324 655.26447199 -74.35860036 656.96158763 -68 658.5 C-60.76485809 660.250858 -53.63276259 662.24598287 -46.5 664.375 C-36.13366547 667.46847558 -25.69084768 670.15109459 -15.17578125 672.69091797 C-13.4896875 673.10108154 -13.4896875 673.10108154 -11.76953125 673.51953125 C-10.27836792 673.87688354 -10.27836792 673.87688354 -8.75708008 674.24145508 C-6.06764335 674.98138954 -3.57870241 675.94468057 -1 677 C-1.00037972 675.77463081 -1.00075944 674.54926162 -1.00115067 673.28676003 C-1.01788524 619.06587397 -1.03330331 564.84498768 -1.04234314 510.62409973 C-1.04255023 509.38521169 -1.04255023 509.38521169 -1.04276149 508.1212956 C-1.04575711 490.15491503 -1.0485269 472.18853443 -1.05106533 454.22215379 C-1.05231224 445.40648468 -1.05360885 436.59081558 -1.05493164 427.77514648 C-1.0550624 426.89806293 -1.05519316 426.02097937 -1.05532788 425.11731752 C-1.05955966 396.88739337 -1.06704828 368.65747128 -1.07629722 340.42754837 C-1.08581501 311.32293256 -1.09190487 282.21831788 -1.09391499 253.11370054 C-1.09420298 248.9661081 -1.09452861 244.81851567 -1.09487724 240.67092323 C-1.09497838 239.44693032 -1.09497838 239.44693032 -1.09508156 238.19821028 C-1.0961742 226.05946296 -1.10015858 213.9207189 -1.10573006 201.78197289 C-1.11396216 183.50463147 -1.1177431 165.22729424 -1.11352539 146.94995117 C-1.11329081 145.87509623 -1.11329081 145.87509623 -1.11305148 144.77852705 C-1.10602902 115.18295681 -1.07525016 85.58810051 -0.77072144 55.99380493 C-0.75603125 54.56586049 -0.75603125 54.56586049 -0.7410443 53.10906868 C-0.55349364 35.40513276 -0.26598234 17.70301161 0 0 Z " fill="#EAEDED" transform="translate(783,509)"/>
</svg>
