<?xml version="1.0" encoding="UTF-8"?>
<svg version="1.1" xmlns="http://www.w3.org/2000/svg" width="1200" height="648">
<path d="M0 0 C0.69675842 0.226875 1.39351685 0.45375 2.11138916 0.6875 C28.37185403 9.260606 53.95531302 19.32595188 79 31 C79.9502002 31.43892578 80.90040039 31.87785156 81.87939453 32.33007812 C111.39726482 46.00711936 140.50579861 61.86199528 166.35595703 81.73681641 C168.0087672 83.00673619 169.67290694 84.26041851 171.33984375 85.51171875 C192.36786793 101.38063561 212.73181276 119.2111032 229 140 C229.62777344 140.74894531 230.25554687 141.49789062 230.90234375 142.26953125 C262.31807345 179.98125585 279.5521112 227.65567663 275.78173828 276.84765625 C272.03235634 313.48485064 256.90571901 348.30627673 234 377 C233.26007813 377.93199219 232.52015625 378.86398437 231.7578125 379.82421875 C223.60259836 389.9406349 214.80633371 399.37441531 205.625 408.5625 C204.75617188 409.44357422 203.88734375 410.32464844 202.9921875 411.23242188 C196.97694806 417.26100874 190.66589511 422.70638121 184 428 C182.73381498 429.03679256 181.46924632 430.07556548 180.20703125 431.1171875 C171.45896224 438.25416852 162.401794 444.75562666 153 451 C152.03900391 451.64654541 152.03900391 451.64654541 151.05859375 452.30615234 C83.12171173 497.95767837 4.19152774 525.82885706 -252 568 C-252.86063049 568.04236786 -253.72126099 568.08473572 -254.60797119 568.12838745 C-272.03209637 568.96951981 -289.43206778 569.20204846 -306.875 569.1875 C-307.54646435 569.18723312 -308.2179287 569.18696625 -308.90974045 569.18669128 C-398.84101858 569.14205385 -488.79663773 558.84395701 -634 517 C-635.23024902 516.5683252 -636.46049805 516.13665039 -637.72802734 515.69189453 C-689.41769097 497.4001675 -740.09241864 473.05787423 -784 440 C-784.59844727 439.55317871 -785.19689453 439.10635742 -785.81347656 438.64599609 C-807.34799419 422.54080931 -828.4943617 404.32439848 -845 383 C-846.00446075 381.74679627 -847.00972614 380.49423721 -848.015625 379.2421875 C-873.53960539 347.11321668 -890.75641812 308.41668344 -892 267 C-892.03996094 266.15695312 -892.07992187 265.31390625 -892.12109375 264.4453125 C-893.46022826 213.87329146 -869.49342918 165.71254861 -835.42578125 129.57421875 C-833.32476305 127.34463583 -831.30532722 125.07571483 -829.3125 122.75 C-824.07953851 116.73209428 -818.40914541 111.20672421 -812.35546875 106.01953125 C-810.57321733 104.49146494 -808.80786565 102.94365844 -807.05078125 101.38671875 C-777.14755648 75.03904674 -742.49100182 54.78932969 -707 37 C-705.94377441 36.46987305 -704.88754883 35.93974609 -703.79931641 35.39355469 C-616.86264367 -7.95926476 -519.40786005 -29.81928308 0 0 Z " fill="#7579B0" transform="translate(908,62)"/>
<path d="M0 0 C0.73192566 -0.00817749 1.46385132 -0.01635498 2.21795654 -0.02478027 C4.64562155 -0.04963724 7.073228 -0.06615234 9.50097656 -0.08056641 C10.33012825 -0.08589008 11.15927994 -0.09121376 12.01355743 -0.09669876 C16.40356014 -0.12343364 20.79353439 -0.14280608 25.18359375 -0.15722656 C29.71437374 -0.17386147 34.24442449 -0.2186279 38.77492905 -0.26959801 C42.26142189 -0.30328642 45.74774212 -0.31480577 49.23438263 -0.32045364 C50.90413221 -0.32716342 52.57387054 -0.34237853 54.24346161 -0.36634445 C56.58478304 -0.39803077 58.9241447 -0.39802849 61.265625 -0.390625 C61.95156738 -0.40703033 62.63750977 -0.42343567 63.34423828 -0.44033813 C68.90108798 -0.36865365 71.1538557 1.36316967 74.89160156 5.19287109 C78.51757951 10.40708797 76.39936762 17.1429236 75.41995239 23.02587891 C74.87185029 25.96412427 74.28207088 28.89089005 73.67675781 31.81787109 C73.46095566 32.88602051 73.2451535 33.95416992 73.02281189 35.0546875 C72.33874124 38.43522627 71.64673493 41.81407742 70.95410156 45.19287109 C70.26672127 48.57198713 69.58100604 51.95143574 68.89610291 55.33105469 C68.47160748 57.42289306 68.04542473 59.51439006 67.61720276 61.60546875 C66.28806483 68.11987332 65.05483286 74.64681357 63.89160156 81.19287109 C64.57159714 81.18842987 65.25159271 81.18398865 65.95219421 81.17941284 C72.46488486 81.13878589 78.97753848 81.10861411 85.49032879 81.08924675 C88.83599651 81.07895405 92.18147653 81.06392256 95.52709961 81.04199219 C129.08488902 80.82780694 168.45248272 80.72105921 194.64160156 105.25537109 C204.6432814 115.84878091 209.10448762 127.07393861 211.89160156 141.19287109 C213.39874231 136.94327462 214.45573997 132.78154048 215.29394531 128.35302734 C215.41717667 127.70901474 215.54040802 127.06500214 215.66737366 126.401474 C216.05847245 124.35348431 216.44399704 122.30449551 216.82910156 120.25537109 C217.08326555 118.91610368 217.33782012 117.57691034 217.59277344 116.23779297 C217.71871384 115.57587448 217.84465424 114.91395599 217.97441101 114.23197937 C218.35615826 112.22953307 218.73970601 110.22743677 219.12329102 108.2253418 C219.64945872 105.4785815 220.16099528 102.72952528 220.66577148 99.97875977 C220.92043935 98.6281993 221.175393 97.27769268 221.43066406 95.92724609 C221.65318848 94.72422852 221.87571289 93.52121094 222.10498047 92.28173828 C223.35092645 87.38921543 225.3643955 84.77045648 229.68578815 82.07286644 C232.48432585 80.95640748 234.73368125 80.93515255 237.74711609 80.92544556 C238.94495224 80.91691559 240.14278839 80.90838562 241.37692261 80.89959717 C242.68847321 80.90050354 244.0000238 80.90140991 245.35131836 80.90234375 C246.74975442 80.8963571 248.14818718 80.88955124 249.5466156 80.88198853 C253.34960658 80.86430441 257.15250753 80.85963127 260.95553565 80.85835695 C263.34244001 80.85693263 265.72932174 80.85265701 268.11622047 80.84736252 C276.47682763 80.82883264 284.83737104 80.8206929 293.19799805 80.82226562 C300.93096116 80.82345791 308.663641 80.80254476 316.39653271 80.7707783 C323.07212118 80.74435602 329.74761893 80.73390949 336.42325908 80.73517644 C340.39294254 80.73567989 344.36237609 80.73035182 348.33200645 80.70882034 C385.49036374 80.52132855 426.29654949 83.86990252 454.18066406 111.38818359 C469.66772138 127.41081638 479.82962926 147.48345215 480.16503906 170.11474609 C480.17761246 170.88362656 480.19018585 171.65250702 480.20314026 172.44468689 C480.79629341 217.54386254 468.6870806 256.55498427 436.90673828 289.5144043 C429.1523676 297.40371581 421.29277251 304.35446592 411.89160156 310.19287109 C410.95864258 310.7797168 410.95864258 310.7797168 410.00683594 311.37841797 C400.1078524 317.51678264 389.98802509 321.73411726 378.89160156 325.19287109 C378.16660461 325.42614105 377.44160767 325.65941101 376.69464111 325.89974976 C353.96325655 333.02442875 330.36723777 332.84460871 306.80273438 332.93109131 C302.5106229 332.95102723 298.21872324 332.99294825 293.92675781 333.03271484 C285.58176285 333.10694661 277.23685316 333.15787485 268.89160156 333.19287109 C267.80198255 338.77729683 266.71351039 344.36194515 265.62597656 349.94677734 C265.38481739 351.18512424 265.38481739 351.18512424 265.13878632 352.44848824 C263.32565683 361.76315656 261.52122008 371.07886459 259.78222656 380.40771484 C259.36790995 382.6102133 258.95287855 384.81257576 258.53759766 387.01489258 C258.26331963 388.48013245 257.99238507 389.94600064 257.72412109 391.41235352 C257.31507265 393.64178574 256.89364407 395.86856896 256.46972656 398.09521484 C256.23672852 399.34810303 256.00373047 400.60099121 255.76367188 401.8918457 C254.25225125 407.61298745 251.82649787 410.92847563 246.89160156 414.19287109 C243.45217896 414.71426392 243.45217896 414.71426392 239.45849609 414.7421875 C238.72773865 414.75240936 237.9969812 414.76263123 237.24407959 414.77316284 C234.83718771 414.80087943 232.43144621 414.79904761 230.02441406 414.79443359 C228.34438657 414.80221244 226.664363 414.8108828 224.98434448 414.82040405 C221.46550745 414.83531256 217.94707177 414.83475857 214.42822266 414.82421875 C209.92983081 414.81263752 205.4330882 414.84647351 200.93496895 414.8929081 C197.46550981 414.92244778 193.9964448 414.92411758 190.52688217 414.91788864 C188.86914684 414.91891208 187.21138859 414.92933181 185.55377579 414.94951248 C170.98999013 415.1050509 170.98999013 415.1050509 166.38330078 411.33496094 C163.01374118 407.74220986 162.69365656 404.25678594 162.76016235 399.41647339 C162.98289389 395.64844741 163.70891177 392.0139966 164.46582031 388.32177734 C164.63008011 387.48955658 164.7943399 386.65733582 164.96357727 385.79989624 C165.49491357 383.11690295 166.03685333 380.43617815 166.57910156 377.75537109 C166.94631174 375.91183654 167.31284518 374.06816707 167.67871094 372.22436523 C168.57746187 367.7034731 169.4845386 363.18430272 170.39447021 358.66564941 C171.11336962 355.08977581 171.82486579 351.5124583 172.53613281 347.93505859 C173.64705611 342.35279384 174.76500805 336.7719941 175.89160156 331.19287109 C174.90160156 331.68787109 174.90160156 331.68787109 173.89160156 332.19287109 C171.48260091 332.31157227 169.10155882 332.37114555 166.69140625 332.38574219 C165.94972702 332.39391968 165.20804779 332.40209717 164.44389343 332.41052246 C161.9837627 332.43538044 159.52368975 332.45189474 157.06347656 332.46630859 C156.22329231 332.47163227 155.38310806 332.47695595 154.51746368 332.48244095 C150.06910616 332.50917619 145.62077672 332.52854857 141.17236328 332.54296875 C136.58105359 332.5596043 131.99046343 332.60437124 127.39942551 332.65534019 C123.86660962 332.68902624 120.3339641 332.7005477 116.8010025 332.70619583 C115.10892497 332.71290619 113.41685857 332.72812279 111.72493744 332.75208664 C109.35249071 332.78376787 106.98197841 332.78377135 104.609375 332.77636719 C103.91408188 332.79277252 103.21878876 332.80917786 102.50242615 332.82608032 C96.92798022 332.75509509 94.69263668 330.96053566 90.89160156 327.19287109 C87.98448889 323.22862654 88.54756808 318.50213201 89.24102783 313.84741211 C89.74953967 311.11095614 90.30085249 308.38649625 90.86816406 305.66162109 C91.07385513 304.64584991 91.2795462 303.63007874 91.49147034 302.58352661 C92.16051211 299.28538828 92.83865911 295.98919016 93.51660156 292.69287109 C94.21370196 289.26437704 94.90835967 285.83539335 95.60301208 282.40640259 C96.06279293 280.13799065 96.52337152 277.86974026 96.98475647 275.60165405 C98.73080889 267.01590842 100.42786045 258.42234899 102.07910156 249.81787109 C102.30662109 248.63394775 102.53414062 247.45002441 102.76855469 246.23022461 C103.2291993 243.83288259 103.68964767 241.43550285 104.14990234 239.03808594 C105.13470266 233.93255433 106.13242316 228.82958534 107.13082886 223.72669983 C108.33018097 217.59398526 109.51773415 211.45904393 110.70046997 205.32310486 C111.51924646 201.08486285 112.36266914 196.85248171 113.22363281 192.62255859 C115.41790277 181.61139717 116.32430382 171.42716613 115.89160156 160.19287109 C101.79448484 156.72353315 87.84067699 156.64533078 73.39160156 156.50537109 C71.00746905 156.47212751 68.62335366 156.43763161 66.23925781 156.40185547 C60.45682354 156.31776907 54.67437048 156.24909085 48.89160156 156.19287109 C48.76440231 156.96884644 48.63720306 157.74482178 48.50614929 158.54431152 C47.54442191 164.3701682 46.54615949 170.17961221 45.41113281 175.97412109 C45.27772995 176.65776733 45.14432709 177.34141357 45.00688171 178.04577637 C44.57412937 180.26177248 44.13911244 182.47731735 43.70410156 184.69287109 C43.3940308 186.2787744 43.08413879 187.86471267 42.77441406 189.45068359 C42.1326862 192.73597475 41.49020027 196.02111627 40.84716797 199.30615234 C39.49991814 206.1919065 38.16208255 213.0794879 36.82406616 219.96704102 C36.09701394 223.70906915 35.36927084 227.45096291 34.64160156 231.19287109 C34.34993163 232.69287046 34.05826496 234.19287046 33.76660156 235.69287109 C33.18326823 238.69287109 32.5999349 241.69287109 32.01660156 244.69287109 C31.87225174 245.43525024 31.72790192 246.17762939 31.57917786 246.94250488 C31.28726994 248.44372813 30.99534895 249.94494883 30.70341492 251.44616699 C29.97783244 255.17743069 29.25247141 258.90873716 28.52758789 262.64013672 C27.17269301 269.61332776 25.81562232 276.58607438 24.45101929 283.55737305 C23.81286293 286.8181959 23.17591918 290.07925513 22.5390625 293.34033203 C22.23774496 294.88146568 21.93584603 296.4224858 21.63330078 297.96337891 C21.21137297 300.11249938 20.79140657 302.26199362 20.37207031 304.41162109 C20.24005219 305.08343918 20.10803406 305.75525726 19.97201538 306.44743347 C18.98684621 311.52339402 18.19270007 316.61410484 17.51000977 321.73901367 C16.49064218 325.7838868 14.04057702 328.54875855 10.89160156 331.19287109 C7.96057066 332.65838654 4.9978048 332.36601126 1.78320312 332.38574219 C1.05127747 332.39391968 0.31935181 332.40209717 -0.43475342 332.41052246 C-2.86241842 332.43537942 -5.29002488 332.45189453 -7.71777344 332.46630859 C-8.54692513 332.47163227 -9.37607681 332.47695595 -10.23035431 332.48244095 C-14.62035701 332.50917583 -19.01033127 332.52854827 -23.40039062 332.54296875 C-27.93117061 332.55960365 -32.46122136 332.60437009 -36.99172592 332.65534019 C-40.47821876 332.68902861 -43.96453899 332.70054795 -47.4511795 332.70619583 C-49.12092909 332.71290561 -50.79066742 332.72812072 -52.46025848 332.75208664 C-54.80157991 332.78377296 -57.14094157 332.78377067 -59.48242188 332.77636719 C-60.16836426 332.79277252 -60.85430664 332.80917786 -61.56103516 332.82608032 C-67.10032495 332.75462236 -69.33352119 330.9402483 -73.10839844 327.19287109 C-77.73320499 320.38303942 -73.71632506 309.70646006 -72.29589844 302.17724609 C-71.57638463 298.43054208 -70.84333536 294.68657589 -70.10839844 290.94287109 C-69.55315523 288.09326638 -68.99947714 285.24336849 -68.44750977 282.39312744 C-68.1057891 280.63077878 -67.76199914 278.86882961 -67.41577148 277.10736084 C-66.51395516 272.4802835 -65.73002838 267.86608404 -65.10839844 263.19287109 C-65.50929688 263.87091797 -65.91019531 264.54896484 -66.32324219 265.24755859 C-70.04266771 271.33695821 -74.05240958 276.64766125 -78.92480469 281.85693359 C-80.87163521 283.9395895 -82.71297463 286.07311357 -84.54589844 288.25537109 C-97.07552971 302.49358844 -113.01869415 312.36644258 -130.10839844 320.19287109 C-131.63013672 320.91603516 -131.63013672 320.91603516 -133.18261719 321.65380859 C-153.6154317 330.85275646 -176.84976082 332.36714378 -198.93261719 332.29052734 C-200.53115291 332.28865809 -202.12968921 332.28723659 -203.72822571 332.28623962 C-207.89889152 332.28245434 -212.06952151 332.27265899 -216.24017334 332.26153564 C-220.51069657 332.25123491 -224.78122569 332.2467236 -229.05175781 332.24169922 C-237.40398764 332.23103241 -245.75618856 332.21400501 -254.10839844 332.19287109 C-254.20796844 332.80763809 -254.30753845 333.42240509 -254.41012573 334.05580139 C-256.63813489 347.75623982 -259.02447 361.40950665 -261.71826172 375.02612305 C-262.24385244 377.68322079 -262.76437911 380.34127572 -263.28417969 382.99951172 C-263.62374027 384.72938503 -263.96357335 386.45920489 -264.30371094 388.18896484 C-264.45583038 388.96404892 -264.60794983 389.739133 -264.76467896 390.53770447 C-265.52771651 394.3901639 -266.31682693 398.2365007 -267.14306641 402.07592773 C-267.29790497 402.79663956 -267.45274353 403.51735138 -267.61227417 404.25990295 C-268.67556605 408.40263386 -270.10139798 410.5806323 -273.75085449 412.79943848 C-277.603911 414.39851646 -280.41509294 414.58584521 -284.57910156 414.61279297 C-285.30185776 414.62126251 -286.02461395 414.62973206 -286.76927185 414.63845825 C-289.14291286 414.66173341 -291.51590227 414.6628529 -293.88964844 414.66162109 C-295.54822038 414.66872728 -297.20678988 414.67642695 -298.86535645 414.68469238 C-302.33527469 414.69811452 -305.80496546 414.69971571 -309.27490234 414.69384766 C-313.71374463 414.6879467 -318.15149499 414.71856906 -322.59012604 414.75896454 C-326.01318201 414.78485403 -329.43597523 414.78771799 -332.8591156 414.78407288 C-334.49534352 414.78576226 -336.13158381 414.79538743 -337.76771545 414.81321716 C-340.05844661 414.83543902 -342.34696954 414.82569268 -344.63769531 414.80810547 C-345.93864136 414.81015991 -347.2395874 414.81221436 -348.57995605 414.81433105 C-353.23170747 413.99502414 -354.78720075 412.50278205 -358.10839844 409.19287109 C-361.216832 404.53022074 -360.35567728 399.88713438 -359.5769043 394.55126953 C-359.20384155 392.69550293 -359.20384155 392.69550293 -358.82324219 390.80224609 C-358.61889305 389.76828705 -358.61889305 389.76828705 -358.41041565 388.71343994 C-357.96252379 386.45513578 -357.50416344 384.19909093 -357.04589844 381.94287109 C-356.72608322 380.33886468 -356.4070881 378.73469456 -356.08886719 377.13037109 C-355.42781063 373.8009531 -354.76324822 370.47226377 -354.09619141 367.14404297 C-352.71517548 360.23980573 -351.37719397 353.32728282 -350.03884888 346.41467285 C-349.31407055 342.67367594 -348.58606014 338.93330802 -347.85839844 335.19287109 C-347.56671653 333.69287406 -347.27504985 332.19287406 -346.98339844 330.69287109 C-344.06673177 315.69287109 -341.1500651 300.69287109 -338.23339844 285.69287109 C-338.08903351 284.95041641 -337.94466858 284.20796173 -337.79592896 283.44300842 C-337.50417036 281.94254875 -337.21240197 280.44209099 -336.92062378 278.94163513 C-336.19278325 275.19868363 -335.46511147 271.45569947 -334.73779297 267.71264648 C-333.40967712 260.87856785 -332.08017928 254.04477014 -330.74461365 247.21214294 C-329.99006018 243.3517113 -329.23649467 239.49108727 -328.48339844 235.63037109 C-328.33679779 234.87901886 -328.19019714 234.12766663 -328.03915405 233.35354614 C-326.10979259 223.45584555 -324.23620484 213.54974921 -322.42089844 203.63037109 C-320.9563173 195.6309656 -319.40280095 187.6637612 -317.69091797 179.71386719 C-315.4155018 169.075122 -313.41455735 158.3809341 -311.36244202 147.69740295 C-310.33115957 142.33446349 -309.28630897 136.97424464 -308.23730469 131.61474609 C-307.92128829 129.99813159 -307.60528886 128.38151377 -307.28930664 126.76489258 C-306.82975599 124.41398203 -306.36975101 122.06316633 -305.90805054 119.712677 C-305.47852354 117.52537867 -305.05065512 115.33776717 -304.62402344 113.14990234 C-304.48976456 112.46211197 -304.35550568 111.77432159 -304.21717834 111.06568909 C-303.22907921 105.94920573 -302.37284543 100.81973713 -301.60253906 95.66625977 C-300.56588342 90.47734757 -298.74214161 86.70618727 -294.86819458 83.11779785 C-289.73709755 79.80521386 -283.43722049 80.63841847 -277.56103516 80.67529297 C-276.17701991 80.66986709 -274.79301045 80.66274182 -273.40901184 80.65405273 C-269.65333039 80.63583398 -265.8980893 80.64289059 -262.14240026 80.65556908 C-258.1823346 80.66574885 -254.22230482 80.65628556 -250.26223755 80.65002441 C-243.58914514 80.64274371 -236.91622958 80.65232717 -230.24316406 80.67138672 C-222.60334805 80.69296012 -214.96396239 80.68625009 -207.3241576 80.6640811 C-200.71894616 80.64570165 -194.11386165 80.64348248 -187.50863278 80.65383577 C-183.58530327 80.65997445 -179.66217281 80.66118474 -175.73885727 80.64768982 C-138.69705285 80.53803644 -99.82623591 83.00364825 -71.10839844 109.19287109 C-70.32980469 109.87865234 -69.55121094 110.56443359 -68.74902344 111.27099609 C-57.47430634 121.7681465 -45.55634034 139.87446882 -44.98339844 155.63037109 C-45.02464844 156.47599609 -45.06589844 157.32162109 -45.10839844 158.19287109 C-44.44839844 158.19287109 -43.78839844 158.19287109 -43.10839844 158.19287109 C-43.18574219 156.83935547 -43.18574219 156.83935547 -43.26464844 155.45849609 C-43.25340698 149.82090587 -41.81563715 144.42211201 -40.60839844 138.94287109 C-40.05111823 136.33554166 -39.49668743 133.7278342 -38.94824219 131.11865234 C-38.80100204 130.41845474 -38.6537619 129.71825714 -38.50205994 128.99684143 C-36.57314722 119.73706781 -34.88206641 110.43231607 -33.17089844 101.13037109 C-32.48683227 97.42058221 -31.80186293 93.71096096 -31.11621094 90.00146484 C-30.86293282 88.63116623 -30.86293282 88.63116623 -30.60453796 87.23318481 C-28.69412158 76.92088154 -26.71982486 66.62101408 -24.68505859 56.33251953 C-24.3990861 54.88623095 -24.11311604 53.43994189 -23.82714844 51.99365234 C-23.61558609 50.92508499 -23.61558609 50.92508499 -23.39974976 49.83493042 C-22.48607346 45.19307441 -21.61805229 40.54452505 -20.77549744 35.88925171 C-20.18820976 32.65917946 -19.58353966 29.43248364 -18.97659302 26.20605469 C-18.69350419 24.67741914 -18.41825819 23.14730651 -18.15158081 21.61572266 C-16.71635442 13.39131202 -15.57899491 6.93389695 -9.10839844 1.19287109 C-6.17736754 -0.27264436 -3.21460167 0.01973093 0 0 Z " fill="#FBFBFB" transform="translate(548.1083984375,93.80712890625)"/>
<path d="M0 0 C18.42983057 -0.07042332 36.85962569 -0.12315001 55.28956223 -0.15543652 C63.84901202 -0.17083346 72.40837769 -0.19178378 80.96777344 -0.22631836 C88.43767779 -0.25644252 95.90752114 -0.27562694 103.37748456 -0.28226548 C107.32412864 -0.28613925 111.27059839 -0.29508865 115.21718597 -0.31719017 C131.68972977 -0.40585718 147.78372276 -0.2747584 164 3 C165.13499939 3.22279129 166.26999878 3.44558258 167.43939209 3.67512512 C187.62932476 7.8986438 207.5405021 19.04432529 219.3203125 36.2734375 C221.3349387 39.46264281 223.20501353 42.68289911 225 46 C225.40863281 46.73476562 225.81726563 47.46953125 226.23828125 48.2265625 C232.14899937 60.04799874 233.35711541 72.73896045 233.375 85.75 C233.37661133 86.86165527 233.37822266 87.97331055 233.37988281 89.11865234 C233.27648139 96.89099246 232.36641198 104.35413083 231 112 C230.78859375 113.22074219 230.5771875 114.44148438 230.359375 115.69921875 C223.16453002 150.98163165 203.73175662 182.90738826 173.625 203.25 C166.6995454 207.78981331 159.52398706 211.54803546 152 215 C151.20980469 215.38800781 150.41960937 215.77601563 149.60546875 216.17578125 C140.92718464 220.11216581 131.31519941 221.36461483 122 223 C120.81509224 223.2148555 120.81509224 223.2148555 119.60624695 223.43405151 C100.55968751 226.77630463 81.44957065 226.35630739 62.19000244 226.20599365 C57.75757224 226.17479603 53.32508745 226.16149636 48.89257812 226.14648438 C40.2615732 226.11471861 31.63082738 226.06381058 23 226 C22.87067078 227.07591904 22.74134155 228.15183807 22.60809326 229.26036072 C22.43253295 230.69824658 22.25684671 232.13611706 22.08105469 233.57397461 C21.99653046 234.27998558 21.91200623 234.98599655 21.82492065 235.71340179 C21.0012345 242.41265959 19.68771246 248.96909695 18.25 255.5625 C17.71823962 258.06341739 17.18836123 260.56473553 16.66015625 263.06640625 C16.3883252 264.35305176 16.11649414 265.63969727 15.83642578 266.96533203 C14.37482262 273.96120233 13.03490396 280.98142225 11.6875 288 C11.4943219 289.00524216 11.4943219 289.00524216 11.29724121 290.03079224 C10.71989591 293.03590694 10.14356041 296.04120894 9.5690918 299.046875 C9.05777384 301.70020062 8.52993406 304.35032968 8 307 C-14.11 307 -36.22 307 -59 307 C-57.76431892 297.73239192 -56.48499685 288.71447093 -54.609375 279.59375 C-54.27172119 277.92026237 -54.27172119 277.92026237 -53.92724609 276.21296692 C-53.45065852 273.85342996 -52.97190705 271.49432913 -52.49108887 269.13565063 C-51.48471485 264.19855806 -50.48911743 259.25931122 -49.49298096 254.32014465 C-49.0003062 251.8776447 -48.50710715 249.43525045 -48.0133667 246.9929657 C-46.21791718 238.10710532 -44.4603923 229.21512518 -42.75 220.3125 C-42.52401123 219.1371167 -42.29802246 217.9617334 -42.06518555 216.75073242 C-41.61393368 214.40159219 -41.16300441 212.05238996 -40.71240234 209.703125 C-39.48742332 203.33558497 -38.24776002 196.97090226 -37.00891113 190.60604858 C-36.56405418 188.320485 -36.11939716 186.03488262 -35.67480469 183.74926758 C-35.08030497 180.69302138 -34.48573773 177.63678834 -33.89111328 174.58056641 C-32.57234991 167.8021407 -31.25445074 161.02354697 -29.93649292 154.2449646 C-29.20769797 150.49663606 -28.47884608 146.7483186 -27.75 143 C-27.45833306 141.50000005 -27.16666639 140.00000005 -26.875 138.5 C-22.5 116 -22.5 116 -18.125 93.5 C-17.98063507 92.75755035 -17.83627014 92.01510071 -17.68753052 91.25015259 C-17.3957643 89.74964354 -17.10399591 88.24913491 -16.81222534 86.74862671 C-16.08456391 83.00641864 -15.35693993 79.26420329 -14.62939453 75.52197266 C-13.29917941 68.68002754 -11.96866464 61.83814129 -10.63677979 54.996521 C-10.02845773 51.87157002 -9.42035059 48.74657725 -8.81225586 45.62158203 C-8.53094838 44.17624904 -8.24954354 42.73093499 -7.96801758 41.28564453 C-6.09485927 31.66909707 -4.23840756 22.04939773 -2.38916016 12.42822266 C-2.15868484 11.22941971 -1.92820953 10.03061676 -1.69075012 8.79548645 C-1.12710425 5.86366964 -0.56352236 2.93184055 0 0 Z " fill="#010101" transform="translate(260,188)"/>
<path d="M0 0 C18.41255981 -0.07044705 36.82508407 -0.12316142 55.23775005 -0.15543652 C63.78932418 -0.17082853 72.34081401 -0.19176909 80.89233398 -0.22631836 C88.35602199 -0.25645796 95.81964888 -0.2756305 103.28339607 -0.28226548 C107.2261598 -0.28613671 111.16874884 -0.29506908 115.11145592 -0.31719017 C147.72914328 -0.49287126 182.58686225 0.69317637 208 24 C208.70511719 24.62519531 209.41023438 25.25039062 210.13671875 25.89453125 C215.52797512 30.93663959 219.33844456 36.61920118 223 43 C223.4640625 43.80308594 223.928125 44.60617188 224.40625 45.43359375 C229.63210451 55.13647606 232.63690311 65.99090227 233 77 C233.03109863 77.64549805 233.06219727 78.29099609 233.09423828 78.95605469 C234.71471186 115.51849864 223.89973317 151.94613025 199.25 179.375 C198.53328125 180.14585937 197.8165625 180.91671875 197.078125 181.7109375 C195.64426311 183.29034177 194.26754191 184.9228694 192.94140625 186.59375 C172.14800646 212.36585115 138.20932 221.38501201 107 225 C106.0041539 225.13176384 106.0041539 225.13176384 104.9881897 225.26618958 C96.62344146 226.26483414 88.24447333 226.12591663 79.8359375 226.09765625 C78.19113203 226.09578765 76.546326 226.09436584 74.90151978 226.09336853 C70.60425234 226.08957813 66.30701952 226.07977814 62.00976562 226.06866455 C57.61198393 226.05837508 53.21419655 226.05385487 48.81640625 226.04882812 C40.21092174 226.03815224 31.60546519 226.02111835 23 226 C22.87320862 226.98669174 22.74641724 227.97338348 22.61578369 228.98997498 C21.73237085 235.78951483 20.81319096 242.55572762 19.484375 249.28515625 C19.34606262 249.99183945 19.20775024 250.69852264 19.06524658 251.42662048 C18.63105532 253.63943808 18.1906852 255.85096776 17.75 258.0625 C17.47225038 259.4745296 17.19490684 260.88663914 16.91796875 262.29882812 C13.98251328 277.20646634 10.97972907 292.10135466 8 307 C-14.11 307 -36.22 307 -59 307 C-56.75056689 289.00453515 -56.75056689 289.00453515 -55.51953125 282.828125 C-55.31942696 281.81114532 -55.31942696 281.81114532 -55.11528015 280.77362061 C-54.68608766 278.59803999 -54.24932152 276.42406025 -53.8125 274.25 C-53.50201403 272.68240844 -53.1921326 271.11469703 -52.8828125 269.546875 C-52.24271073 266.30487467 -51.6000693 263.06339377 -50.95556641 259.82226562 C-49.59351865 252.96221894 -48.26346562 246.09598263 -46.9324646 239.2298584 C-46.20642714 235.4862902 -45.47809197 231.74316906 -44.75 228 C-44.45832244 226.50000212 -44.16665577 225.00000212 -43.875 223.5 C-35.125 178.5 -35.125 178.5 -34.68742371 176.24963379 C-34.39599828 174.75085703 -34.10458591 173.25207774 -33.81318665 171.7532959 C-33.08043645 167.98455925 -32.34745365 164.2158681 -31.61401367 160.44726562 C-30.34407313 153.9208744 -29.07493549 147.39434791 -27.81581116 140.86585999 C-27.14929936 137.41032968 -26.48124945 133.9550979 -25.8125 130.5 C-25.6758493 129.79384552 -25.53919861 129.08769104 -25.39840698 128.36013794 C-23.36458162 117.86577472 -21.27962174 107.38210421 -19.171875 96.90234375 C-18.92023087 95.65077484 -18.66858673 94.39920593 -18.40931702 93.10971069 C-18.02603493 91.20350449 -18.02603493 91.20350449 -17.63500977 89.25878906 C-17.11082171 86.65169635 -16.58665188 84.04459998 -16.0625 81.4375 C-15.80346893 80.14952515 -15.54443787 78.86155029 -15.27755737 77.5345459 C-11.49355275 58.69946528 -7.84232703 39.84560495 -4.41040039 20.94311523 C-4.25967575 20.11704269 -4.10895111 19.29097015 -3.95365906 18.43986511 C-3.6799355 16.93723492 -3.4084541 15.43419328 -3.13996887 13.93061829 C-2.28348681 9.22473087 -1.17412094 4.63331485 0 0 Z " fill="#010101" transform="translate(783,188)"/>
<path d="M0 0 C22.11 0 44.22 0 67 0 C62.41325303 27.52048181 62.41325303 27.52048181 60.45703125 37 C60.24310226 38.05687012 60.02917328 39.11374023 59.8087616 40.20263672 C59.14722747 43.46922948 58.48044409 46.73471247 57.8125 50 C57.13430462 53.3225041 56.45740752 56.64525105 55.78410339 59.96875 C55.37079331 62.00841036 54.95473476 64.04751657 54.53535461 66.0859375 C53.4611207 71.3817278 52.5920727 76.62829304 52 82 C52.87378296 81.99333817 53.74756592 81.98667633 54.64782715 81.97981262 C62.99909074 81.91897977 71.35027691 81.87366668 79.70171356 81.84456348 C83.99232147 81.82909695 88.28274206 81.80822055 92.57324219 81.77368164 C167.53874591 81.1866667 167.53874591 81.1866667 190 103 C203.23404001 118.57100342 203.40135549 136.51526383 202 156 C200.92465094 165.42904942 198.97092139 174.71348692 197.03613281 183.99658203 C195.8489933 189.69741181 194.71790029 195.40909488 193.5859375 201.12109375 C191.86527879 209.7889847 190.13176731 218.45417466 188.38671875 227.1171875 C182.97027997 254.02652879 177.94498755 281.00036799 173 308 C150.56 308 128.12 308 105 308 C106.29024959 298.32312811 107.69583453 288.9948093 109.75 279.5 C110.29323688 276.92739951 110.83515951 274.35456144 111.375 271.78125 C111.51218445 271.12922607 111.6493689 270.47720215 111.79071045 269.80541992 C116.26427389 248.48432519 120.14056879 227.03011008 124.1875 205.625 C124.51192078 203.91086914 124.51192078 203.91086914 124.84289551 202.16210938 C126.23984734 194.77681812 127.62659896 187.3897075 129 180 C129.16253265 179.12880524 129.32506531 178.25761047 129.49252319 177.36001587 C129.9249173 175.03132669 130.35063919 172.70154169 130.7734375 170.37109375 C131.00337402 169.11224365 131.23331055 167.85339355 131.47021484 166.55639648 C132.67820048 158.44730584 133.66930637 149.79664602 129.17578125 142.5390625 C124.62206584 136.57838519 118.07877084 134.71553258 111 133 C105.49999794 132.43295833 100.04033577 132.39371341 94.515625 132.390625 C92.96334132 132.37560881 91.41107342 132.35887458 89.85882568 132.34051514 C85.81477031 132.29721432 81.77093027 132.2769264 77.72668457 132.26177979 C73.58328715 132.24207266 69.4401178 132.20011901 65.296875 132.16015625 C57.19797701 132.08525905 49.09916952 132.03472416 41 132 C40.91578293 132.84421761 40.91578293 132.84421761 40.8298645 133.70549011 C40.30833868 138.689602 39.58962458 143.5678526 38.6171875 148.48828125 C38.48236969 149.17617233 38.34755188 149.86406342 38.20864868 150.57279968 C37.76746295 152.82004343 37.32121053 155.06624911 36.875 157.3125 C36.56015724 158.91203273 36.24571184 160.51164372 35.93164062 162.11132812 C35.27985397 165.42950348 34.6263715 168.74733808 33.97167969 172.06494141 C32.61110802 178.96633556 31.27139943 185.87176796 29.93145752 192.77719116 C29.20528734 196.51831844 28.47755986 200.25914278 27.75 204 C27.45832598 205.49999857 27.16665931 206.99999857 26.875 208.5 C26.29166667 211.5 25.70833333 214.5 25.125 217.5 C24.98064011 218.2424295 24.83628021 218.98485901 24.68754578 219.74978638 C24.39573741 221.25050057 24.10391815 222.75121265 23.81208801 224.25192261 C23.08500016 227.99097817 22.35809881 231.73006981 21.6315918 235.46923828 C20.29454 242.34972946 18.95585222 249.22988752 17.6105957 256.10877991 C16.8436857 260.03068192 16.07804576 263.9528315 15.3125 267.875 C15.16528503 268.62842682 15.01807007 269.38185364 14.86639404 270.15811157 C12.86750025 280.39664284 10.92514574 290.64248021 9.15356445 300.92333984 C8.10516626 306.89483374 8.10516626 306.89483374 7 308 C4.94443339 308.09413687 2.88559819 308.11742998 0.82788086 308.11352539 C-0.13794167 308.11374443 -0.13794167 308.11374443 -1.12327576 308.1139679 C-3.26060303 308.11326885 -5.39784413 308.10547691 -7.53515625 308.09765625 C-9.01346285 308.09579204 -10.49177007 308.09436815 -11.97007751 308.09336853 C-15.86798802 308.08954359 -19.76586149 308.07971352 -23.66375732 308.06866455 C-27.63846333 308.05844992 -31.61317529 308.0538708 -35.58789062 308.04882812 C-43.391944 308.03809122 -51.19596682 308.02101509 -59 308 C-56.9776378 292.27351401 -56.9776378 292.27351401 -55.51953125 284.92578125 C-55.38635498 284.2474675 -55.25317871 283.56915375 -55.1159668 282.87028503 C-54.68569108 280.68349988 -54.2491339 278.49802357 -53.8125 276.3125 C-53.49846986 274.72274945 -53.18492386 273.1329032 -52.87182617 271.54296875 C-52.22750624 268.27259881 -51.58116962 265.00263681 -50.93359375 261.73291016 C-50.07925736 257.411443 -49.23930685 253.08733261 -48.40625 248.76171875 C-45.71432517 234.79780373 -42.97597935 220.84422977 -40.171875 206.90234375 C-39.92045746 205.65204376 -39.66903992 204.40174377 -39.41000366 203.11355591 C-39.15465851 201.84373871 -38.89931335 200.57392151 -38.63623047 199.265625 C-38.11157389 196.65626599 -37.58696208 194.0468981 -37.0625 191.4375 C-36.93211586 190.78878937 -36.80173172 190.14007874 -36.66739655 189.47171021 C-32.7055606 169.75293234 -28.89477097 150.01343181 -25.259552 130.23205566 C-25.10686859 129.40137573 -24.95418518 128.5706958 -24.796875 127.71484375 C-24.64685028 126.89834351 -24.49682556 126.08184326 -24.34225464 125.24060059 C-22.76301982 116.67039816 -21.10854154 108.11521244 -19.4375 99.5625 C-19.29444427 98.83023193 -19.15138855 98.09796387 -19.0039978 97.34350586 C-18.29004571 93.69119328 -17.57476292 90.0391429 -16.85888672 86.38720703 C-15.54403802 79.67625374 -14.24116905 72.96296953 -12.93713379 66.24990845 C-12.35951316 63.2769204 -11.78133821 60.30404028 -11.20315552 57.3311615 C-9.98782953 51.08222708 -8.77320159 44.83315749 -7.55941772 38.58392334 C-6.92223738 35.30348056 -6.28485656 32.02307674 -5.64746094 28.74267578 C-5.34544045 27.18800769 -5.04351677 25.63332078 -4.74169922 24.07861328 C-4.32153923 21.91433934 -3.90103657 19.75013222 -3.48046875 17.5859375 C-3.24223389 16.3592334 -3.00399902 15.1325293 -2.75854492 13.86865234 C-1.85162645 9.24328055 -0.92438265 4.62191324 0 0 Z " fill="#010101" transform="translate(545,106)"/>
<path d="M0 0 C8.45932722 -0.0934744 16.91843177 -0.16415137 25.37815094 -0.20724869 C29.30811556 -0.22795337 33.23772194 -0.25594898 37.16748047 -0.30175781 C40.97361164 -0.34583809 44.77940254 -0.36926504 48.58576965 -0.37950897 C50.02396489 -0.38679076 51.46214561 -0.40100267 52.90019226 -0.42292023 C68.53799568 -0.65135854 82.29662718 2.43202122 95.75 10.6875 C104.81637615 20.00571993 106.40377812 30.82153207 106.36791992 43.27050781 C105.87047529 67.85511758 97.30428278 94.44780502 79.375 111.6875 C58.08093517 129.45355409 28.74426469 128.45196686 2.75 128.1875 C0.14323698 128.17241231 -2.46353458 128.1587312 -5.0703125 128.14648438 C-11.38039842 128.11383434 -17.69015774 128.06396482 -24 128 C-21.93711053 114.33000451 -21.93711053 114.33000451 -20.73828125 108.21484375 C-20.51019775 107.0441333 -20.28211426 105.87342285 -20.04711914 104.66723633 C-19.80469482 103.43642334 -19.56227051 102.20561035 -19.3125 100.9375 C-19.04979153 99.59339336 -18.78734788 98.24923494 -18.52514648 96.9050293 C-17.97046767 94.0630717 -17.4144441 91.22138201 -16.85742188 88.37988281 C-15.99958409 84.00148854 -15.14748096 79.62199178 -14.296875 75.2421875 C-14.15470551 74.51026688 -14.01253601 73.77834625 -13.86605835 73.02424622 C-13.57684584 71.53522074 -13.28765117 70.04619179 -12.99847412 68.55715942 C-11.18909524 59.24137862 -9.37790232 49.92596157 -7.55488586 40.61283875 C-6.91789714 37.35789194 -6.28212563 34.10270789 -5.64645386 30.84750366 C-5.3455686 29.30850526 -5.04409612 27.76962152 -4.74197388 26.23086548 C-4.31995565 24.08128728 -3.90002283 21.93131032 -3.48046875 19.78125 C-3.24223389 18.56501953 -3.00399902 17.34878906 -2.75854492 16.09570312 C-1.74161142 10.74758632 -0.88057167 5.371902 0 0 Z " fill="#777BB3" transform="translate(840,237)"/>
<path d="M0 0 C1.25996796 -0.01606293 2.51993591 -0.03212585 3.81808472 -0.04867554 C5.2109102 -0.06018061 6.60374337 -0.07078613 7.99658203 -0.08056641 C9.05185781 -0.08855192 9.05185781 -0.08855192 10.1284523 -0.09669876 C13.87208212 -0.12350701 17.61567816 -0.14283319 21.359375 -0.15722656 C24.4241422 -0.17041389 27.48821924 -0.19796375 30.55273438 -0.23925781 C74.97623876 -0.82449659 74.97623876 -0.82449659 89.12939453 11.19287109 C96.9047065 18.91714163 99.49845602 28.44310034 99.56689453 39.13037109 C99.18598636 64.22051866 93.22157124 90.26800916 75.50439453 108.94287109 C53.75057868 129.55174927 22.51728699 128.51680627 -5.43310547 128.31787109 C-7.90901329 128.30781632 -10.38492508 128.29869491 -12.86083984 128.29052734 C-18.86418329 128.26872322 -24.86737523 128.23544548 -30.87060547 128.19287109 C-28.33939804 112.26643284 -25.42167775 96.44691674 -22.2097168 80.64434814 C-21.23096514 75.82813712 -20.26146155 71.01007839 -19.29156494 66.19207764 C-18.81161759 63.80792332 -18.3312773 61.42384807 -17.8505249 59.03985596 C-15.98936792 49.80578627 -14.15918995 40.56626227 -12.37060547 31.31787109 C-12.13849365 30.11815674 -11.90638184 28.91844238 -11.66723633 27.68237305 C-10.14928226 19.77775934 -8.72650465 11.86067339 -7.41357422 3.91943359 C-6.45881132 -0.87498728 -4.54395134 0.05250627 0 0 Z " fill="#777BB3" transform="translate(323.87060546875,236.80712890625)"/>
<path d="M0 0 C1.25996796 -0.01606293 2.51993591 -0.03212585 3.81808472 -0.04867554 C5.2109102 -0.06018061 6.60374337 -0.07078613 7.99658203 -0.08056641 C9.05185781 -0.08855192 9.05185781 -0.08855192 10.1284523 -0.09669876 C13.87208212 -0.12350701 17.61567816 -0.14283319 21.359375 -0.15722656 C24.4241422 -0.17041389 27.48821924 -0.19796375 30.55273438 -0.23925781 C74.97623876 -0.82449659 74.97623876 -0.82449659 89.12939453 11.19287109 C96.9047065 18.91714163 99.49845602 28.44310034 99.56689453 39.13037109 C99.18598636 64.22051866 93.22157124 90.26800916 75.50439453 108.94287109 C53.75057868 129.55174927 22.51728699 128.51680627 -5.43310547 128.31787109 C-7.90901329 128.30781632 -10.38492508 128.29869491 -12.86083984 128.29052734 C-18.86418329 128.26872322 -24.86737523 128.23544548 -30.87060547 128.19287109 C-28.33939804 112.26643284 -25.42167775 96.44691674 -22.2097168 80.64434814 C-21.23096514 75.82813712 -20.26146155 71.01007839 -19.29156494 66.19207764 C-18.81161759 63.80792332 -18.3312773 61.42384807 -17.8505249 59.03985596 C-15.98936792 49.80578627 -14.15918995 40.56626227 -12.37060547 31.31787109 C-12.13849365 30.11815674 -11.90638184 28.91844238 -11.66723633 27.68237305 C-10.14928226 19.77775934 -8.72650465 11.86067339 -7.41357422 3.91943359 C-6.45881132 -0.87498728 -4.54395134 0.05250627 0 0 Z M4.12939453 12.19287109 C-3.50622893 50.16622696 -3.50622893 50.16622696 -10.87060547 88.19287109 C-11.08088379 89.29808105 -11.29116211 90.40329102 -11.5078125 91.54199219 C-12.09317077 94.63285071 -12.67119681 97.72496108 -13.24560547 100.81787109 C-13.4975769 102.15192993 -13.4975769 102.15192993 -13.75463867 103.51293945 C-13.90376709 104.32770752 -14.05289551 105.14247559 -14.20654297 105.98193359 C-14.33593262 106.68012207 -14.46532227 107.37831055 -14.59863281 108.09765625 C-14.90795339 110.48059092 -14.91514241 112.79259219 -14.87060547 115.19287109 C-8.89732497 115.26799943 -2.92432988 115.32192707 3.04931641 115.35766602 C5.07410483 115.37259193 7.09886187 115.39294002 9.12353516 115.41918945 C28.50137998 115.66381076 49.02799181 115.20835969 64.56689453 101.94287109 C81.15530688 85.54419549 86.20658361 63.26016096 86.56689453 40.63037109 C86.60061157 39.25606934 86.60061157 39.25606934 86.63500977 37.85400391 C86.6135695 31.85292757 85.63559012 27.15681355 82.12939453 22.19287109 C68.46586645 9.03585903 44.0239816 11.92880507 26.69189453 12.06787109 C24.49593509 12.0779257 22.29997117 12.08704715 20.10400391 12.09521484 C14.77903467 12.11702072 9.45423618 12.15029978 4.12939453 12.19287109 Z " fill="#FBFBFB" transform="translate(323.87060546875,236.80712890625)"/>
<path d="M0 0 C8.45932722 -0.0934744 16.91843177 -0.16415137 25.37815094 -0.20724869 C29.30811556 -0.22795337 33.23772194 -0.25594898 37.16748047 -0.30175781 C40.97361164 -0.34583809 44.77940254 -0.36926504 48.58576965 -0.37950897 C50.02396489 -0.38679076 51.46214561 -0.40100267 52.90019226 -0.42292023 C68.53799568 -0.65135854 82.29662718 2.43202122 95.75 10.6875 C104.81637615 20.00571993 106.40377812 30.82153207 106.36791992 43.27050781 C105.87047529 67.85511758 97.30428278 94.44780502 79.375 111.6875 C58.08093517 129.45355409 28.74426469 128.45196686 2.75 128.1875 C0.14323698 128.17241231 -2.46353458 128.1587312 -5.0703125 128.14648438 C-11.38039842 128.11383434 -17.69015774 128.06396482 -24 128 C-21.93711053 114.33000451 -21.93711053 114.33000451 -20.73828125 108.21484375 C-20.51019775 107.0441333 -20.28211426 105.87342285 -20.04711914 104.66723633 C-19.80469482 103.43642334 -19.56227051 102.20561035 -19.3125 100.9375 C-19.04979153 99.59339336 -18.78734788 98.24923494 -18.52514648 96.9050293 C-17.97046767 94.0630717 -17.4144441 91.22138201 -16.85742188 88.37988281 C-15.99958409 84.00148854 -15.14748096 79.62199178 -14.296875 75.2421875 C-14.15470551 74.51026688 -14.01253601 73.77834625 -13.86605835 73.02424622 C-13.57684584 71.53522074 -13.28765117 70.04619179 -12.99847412 68.55715942 C-11.18909524 59.24137862 -9.37790232 49.92596157 -7.55488586 40.61283875 C-6.91789714 37.35789194 -6.28212563 34.10270789 -5.64645386 30.84750366 C-5.3455686 29.30850526 -5.04409612 27.76962152 -4.74197388 26.23086548 C-4.31995565 24.08128728 -3.90002283 21.93131032 -3.48046875 19.78125 C-3.24223389 18.56501953 -3.00399902 17.34878906 -2.75854492 16.09570312 C-1.74161142 10.74758632 -0.88057167 5.371902 0 0 Z M11 12 C10.87504654 12.62542191 10.75009308 13.25084381 10.62135315 13.8952179 C8.44895131 24.76697795 6.27550005 35.63851442 4.08822632 46.5072937 C3.24771843 50.68456893 2.40883803 54.86217036 1.57006836 59.03979492 C1.14724911 61.14377351 0.7237429 63.24761416 0.29956055 65.35131836 C-1.97056266 76.61325093 -4.20596605 87.88122521 -6.30859375 99.17578125 C-6.48036636 100.0791069 -6.65213898 100.98243256 -6.82911682 101.91313171 C-7.64058591 106.33935312 -8.20041501 110.47654521 -8 115 C-1.86599297 115.07501608 4.26773805 115.12900518 10.40209961 115.16479492 C12.48222515 115.17973905 14.56231998 115.20010177 16.64233398 115.22631836 C37.07620131 115.47713117 57.10230145 114.55961571 73 100 C73.52980469 99.52433594 74.05960938 99.04867187 74.60546875 98.55859375 C83.25429906 89.67789131 88.07538047 75.72926359 91 64 C91.22429687 63.18273437 91.44859375 62.36546875 91.6796875 61.5234375 C93.19097947 55.00210915 93.2360277 48.41346818 93.3125 41.75 C93.33022461 40.80261963 93.34794922 39.85523926 93.36621094 38.87915039 C93.35877895 31.8528255 92.3085996 27.1277801 88.0625 21.375 C76.85352863 12.68232832 62.57518408 11.66777512 48.890625 11.8046875 C47.79780212 11.8075174 46.70497925 11.81034729 45.57904053 11.81326294 C42.135909 11.8243344 38.69305106 11.84941367 35.25 11.875 C32.89583713 11.88504668 30.54167012 11.89416955 28.1875 11.90234375 C22.45824217 11.9242308 16.72914064 11.95757546 11 12 Z " fill="#FBFBFB" transform="translate(840,237)"/>
<path d="M0 0 C0.33 0 0.66 0 1 0 C0.67 2.64 0.34 5.28 0 8 C-0.99 8 -1.98 8 -3 8 C-3.99 8.495 -3.99 8.495 -5 9 C-3.50164236 5.88802644 -1.86022073 2.91164984 0 0 Z " fill="#8C90BF" transform="translate(483,356)"/>
</svg>
